# xmcd
#
# Track frame offsets:
#	182
#	12365
#	24232
#	37720
#	53990
#	68365
#	82207
#	102132
#	114300
#	127365
#	138575
#	151257
#	165445
#	183520
#
# Disc length: 2723 seconds
#
# Revision: 1
# Processed by: cddbd v1.5.1PL2 Copyright (c) Steve Scherf et al.
# Submitted via: audiograbber 1.83.01
#
DISCID=ad0aa10e
DTITLE=Tom Astor - Die besten Trucker Songs CD 1
DYEAR=1900
DGENRE=Country
TTITLE0=Radwechsel
TTITLE1=14 Tage auf dem Brenner
TTITLE2=Ich bin CB Funker
TTITLE3=Wer die Oma nicht kennt, hat die Zeit echt verpennt
TTITLE4=Ich bin ein Gefangener der Autobahn
TTITLE5=Gebet eines Truckers
TTITLE6=Meine Antwort ist die große Autobahn
TTITLE7=Ich wünsche euch Hals- und Beinbruch
TTITLE8=Buchstabiere LKW
TTITLE9=Ist das ein Leben - so hart und so schön
TTITLE10=Er ist ein Gottesmann für Trucker
TTITLE11=Ich habe Hunger auf ein Weib
TTITLE12=Intercity Linie Nummer 4
TTITLE13=Er ist ein Kerl
EXTD=
EXTT0=
EXTT1=
EXTT2=
EXTT3=
EXTT4=
EXTT5=
EXTT6=
EXTT7=
EXTT8=
EXTT9=
EXTT10=
EXTT11=
EXTT12=
EXTT13=
PLAYORDER=
